<!--
  Licensed to the Apache Software Foundation (ASF) under one
  or more contributor license agreements.  See the NOTICE file
  distributed with this work for additional information
  regarding copyright ownership.  The ASF licenses this file
  to you under the Apache License, Version 2.0 (the
  "License"); you may not use this file except in compliance
  with the License.  You may obtain a copy of the License at

   http://www.apache.org/licenses/LICENSE-2.0

  Unless required by applicable law or agreed to in writing,
  software distributed under the License is distributed on an
  "AS IS" BASIS, WITHOUT WARRANTIES OR CONDITIONS OF ANY
  KIND, either express or implied.  See the License for the
  specific language governing permissions and limitations
  under the License.
-->
<svg version="1" xmlns="http://www.w3.org/2000/svg" width="1024" height="1024" viewBox="0 0 768.000000 768.000000"><path d="M63 146.1c-30.2 6.1-50.8 22.8-59.4 48.1C1.1 201.7.8 203.9.5 216c-.7 28.6 10.1 50.8 31.7 65.7 6.6 4.5 24.7 13.9 40.1 20.7 9.4 4.1 25.2 13.3 31 18.1 6.8 5.5 11.2 12.1 13.7 20.5 6.6 22.4-1.4 42.1-21 52-8.8 4.5-15.7 5.8-27.4 5.5-5.7-.1-10.7-.5-11.2-.8-.5-.3-2.6-.8-4.8-1.1-8.7-1.4-25.4-8.2-34.8-14.3-1.5-.9-2.9-1.5-3-1.3-.3.4-11.1 27.4-13.3 33.2-1.1 2.8 23.9 14 36.4 16.3 9 1.7 13.1 2 26.6 2 8.3-.1 17.3-.4 20-.8 6-1 20-4.4 22.3-5.6.9-.5 4-1.8 6.7-3.1 2.8-1.2 7.9-4.2 11.5-6.5 21-14.1 32.1-34.1 32.3-58.4.3-30.3-8.2-50.2-28.2-66.2-7.3-5.8-11.8-8.2-51.1-27.2-23.7-11.5-32.2-18.9-37-32.4-6.6-18.7-.6-38.9 14.6-49.3 9.9-6.9-18-6.3 304.7-6.4l291.7-.2v2.6c.1 3.6.1 83.3.1 84.6-.1 1.3-10.7 12.4-11.9 12.4-.5 0-2.4-.7-4.1-1.6-8.5-4.2-20.3-6.6-34.6-6.9-20.9-.5-32.6 2.3-45.5 10.6-11.3 7.3-22.1 19.1-27.8 30.5-13.3 26.4-10.6 63.6 6.2 83.8 4.6 5.6 9.6 10.5 17 16.7l2.8 2.5-6.3 4.4c-8.3 5.8-14.9 12.6-17.8 18.5-2.8 5.7-3.2 14.1-.8 19.7 3.4 8.1 13.5 14.6 25.4 16.5 8.6 1.3 27.5.6 40.8-1.5 14.6-2.3 33.7-4.4 40.5-4.4 7.8-.1 16.8 5.4 17.1 10.4.4 5.4 0 7.7-1.6 10.2-5.3 8.1-25.2 15.3-47.1 17.1-4.3.4-9 .9-10.4 1.1-1.4.3-12.4.7-24.5.9l-22 .5-1.2 6c-1.6 8-5.4 15.7-10.5 21.5l-4.2 4.8 27.4-.7c15.1-.3 30-.8 33-1 17.4-1.3 21.6-1.7 23-2.1.8-.2 3.3-.6 5.5-.9 6.1-.7 20.3-4.5 27.5-7.3 17.4-7 29.7-16.7 36.2-28.7 2.8-5.3 3.3-7.2 3.4-13.9.5-22.5-13.8-39.2-37.6-44.3-7.1-1.5-24.1-1.5-32 0-2.4.4-4.9.8-13.7 2.2-2.1.3-7.4 1.2-11.8 2s-10.2 1.7-13 2c-2.7.4-5.3.8-5.6 1-.3.2-3.3.6-6.6.9-7.7.9-12.3-1.1-12.3-5.2 0-3.3 7.3-10.4 15.1-14.8 5.4-3 5.5-3 21.9-3.1 9.1 0 18.5-.4 20.8-.8 5.4-.9 16.6-4.2 20.9-6.2 1.7-.8 3.4-1.4 3.8-1.4.4 0 4.4-2.4 8.9-5.4 17.4-11.6 25.4-24.5 29.6-47.8 1.7-9.7 2.1-29.4.7-35.3-1.9-7.7-4.3-14.1-8.1-21l-4.3-8 9.6-9.8 9.6-9.7V145l-308 .1c-179.1.1-309.9.5-312.5 1zm551 152.4c13.2 4.7 23.3 15.4 27.9 29.8 2.6 8 1.7 26.8-1.9 37.7-6.4 19.6-20.9 29.4-41.9 28.5-12.9-.5-20.8-3.9-29.1-12.5-8.7-8.8-14.1-25.8-13.4-42.3.8-21.1 14-37.6 33.9-42.3 6.4-1.5 18.8-.9 24.5 1.1zM701.7 147.1c.4 1.5 1.3 2 3.7 1.9 8.3-.5 7.6-1.8 7.6 15 0 14.3.1 15 2 15s2-.7 2-15c0-11.3.3-15 1.3-15.1.6-.1 3.1-.1 5.5 0 3.6.1 4.2-.1 4.2-1.9 0-1.9-.6-2-13.4-2-13.1 0-13.4.1-12.9 2.1zM733 162c0 16.3.1 17 2 17s2-.7 2-14.3v-14.2l6.1 14.2c3.4 7.9 6.7 14.3 7.3 14.3.7 0 4-6.3 7.2-14l5.9-14 .3 14c.2 13.2.4 14 2.2 14 1.9 0 2-.7 2-17v-17h-2.9c-3.2 0-3.1-.1-9.7 15.5-2 4.9-4 9.4-4.4 9.8-.6.7-4.5-7.4-10.5-21.6-1.3-3.1-2-3.7-4.5-3.7h-3v17z"/><path d="M187.3 208.3c-.8 1.3-.5 194.2.3 199.5 2.1 14.2 10.3 22.3 22.7 22.5 11.9.2 16.6-2 22.8-10.7 3.2-4.3 3.6-5.6 1.6-5.6-3.7 0-8.8-7.2-10.3-14.5-.4-2.2-.8-45.9-.9-97.2 0-51.3-.3-93.5-.6-93.8-.9-.9-35.1-1.1-35.6-.2zM285.4 216.9c-9.6 4.4-14.1 16.6-9.9 26.8 5.4 12.9 22.2 16.6 32.6 7.2 6.2-5.6 8.4-15.7 5.1-23-5-11.4-16.8-16-27.8-11zM415 272.6c-7.9 1.7-17.5 6.3-22.7 10.8-2.1 1.9-4 3.3-4.2 3-.2-.2-.3-3.1-.2-6.4.1-4.3-.2-6-1.1-6.1-1.9-.1-27-.1-29.4 0l-2.1.1-.1 76v76H391V316l4.1-4c11.5-11.1 31.9-14.5 44.9-7.4 7.9 4.3 11.7 10.8 13.6 22.9.4 2.7.7 26 .7 51.7V426h35.8l-.4-54.3c-.2-29.8-.6-55.5-1-57-1.6-6.2-5.8-16-8.5-20-7.8-11.2-20-19.3-33.2-22.1-8.3-1.7-23.7-1.7-32 0zM261 289.3v14.9l3.8-.2c2-.1 5.4-.2 7.4-.1l3.8.1.2 62.2.3 62.2h35V274.5l-25.2-.1H261v14.9zM.2 490.5L.3 537l91.6-.1c60.9-.1 90.3-.4 87.6-1.1-49.2-11.8-66.6-17.9-77-27l-4.3-3.8-33.3-.2-33.4-.3v-48l-6-2.1c-3.3-1.1-7.3-2.6-8.8-3.2-1.6-.7-3-1.2-3.2-1.2-.4 0-11.3-4.9-12.6-5.6-.4-.2-.7 20.5-.7 46.1zM275 457.6c3.3 3.1 6 6 6 6.5 0 .6-1 .1-2.2-1.1-3.1-2.9-13.5-7.7-18.8-8.8-4.5-.8-22.7-.7-26.5.2-1.1.2-2.2.5-2.4.5-.2.1 2 2.5 4.8 5.3 6.8 6.8 8.8 10.2 3.5 6-7.6-6.1-15.4-8.4-35.4-10.8-6.7-.7-34-.8-37.5 0-1.6.3-4 .9-5.2 1.1-6.9 1.5-12.3 3.4-18.9 6.8-9.7 5-17 15-17.8 24.6-.8 10.1 8.5 15.7 41.1 24.7 11.9 3.2 41.1 9.5 51.3 10.9 2.4.4 4.7.8 5 1 .3.2 3.7.6 7.5 1 3.9.4 7.3.9 7.6 1.1.3.2 3 .6 6 .9 3 .3 6.5.8 7.9 1 2.3.4 4.8.6 20.8 2 24.2 2.2 57.9 2.2 78.7 0 8.1-.9 29-4.3 34-5.7 2.2-.5 4.9-1.2 6-1.4 1.8-.3 9.1-2.4 18.3-5.3 3-.9 3.3-.8 2.7.7-1.8 4.2-4.5 13.6-4.5 15.5 0 1.6.9.7 3.6-3.3 1.9-3 5.4-7.6 7.7-10.3 4-4.9 13.1-12.7 14.7-12.7 1.1 0 3.9 8 4.2 12.2.3 5.8 1.9 2.9 2.5-4.6l.6-6.7 3.5 3.6c2 2 5.9 5 8.7 6.7 5.1 3.2 5 2.6-.7-3.3-4.2-4.4-8.6-13.3-7-14.3.4-.2 4.8-.7 9.8-1 5-.4 10.2-.9 11.5-1.1 1.3-.2 5.6-.6 9.4-1 3.9-.3 10.8-1 15.5-1.6 4.7-.5 10.3-1.2 12.5-1.4 2.2-.3 6-.8 8.5-1.1 2.5-.3 5.9-.7 7.5-.9 1.7-.2 5.9-.7 9.5-1 7.3-.8 7.8-1.1 6.2-2.7-1.4-1.4-5.3-1.4-16.7.1-4.9.6-11 1.3-13.5 1.6-2.5.2-6.7.6-9.5 1-9.3 1-13 1.4-20 2.1-3.8.3-8.3.8-10 1-4.2.4-16.1 1.4-33.5 2.9-4.1.3-9.7.8-12.5 1-2.7.2-9.5.7-15 1-5.5.4-12.2.8-15 1-37.1 2.7-128.5 2.7-156.9 0-23-2.2-43.5-5-56.1-7.6-2.7-.6-6.1-1.3-7.5-1.5-1.3-.3-2.7-.8-3-1.1-.5-.5 4.2 0 9.6 1.1 3.2.6 8 1.4 17.4 2.6 13.7 1.7 15.1 1.9 23.5 2.5 4.4.3 9.6.8 11.5 1 21 2.4 110.9 2.5 144.5 0 6-.4 15.9-1 33.5-2 5.2-.3 10.9-.8 12.5-1 1.7-.2 7.3-.7 12.5-1.1 9.1-.6 13.2-1.6 12.8-3.2-.3-1.2 3.2-8.5 5-10.6 1.6-1.8 1.6-1.8-.3-.8-2.7 1.4-6 5.1-7.9 8.6l-1.5 2.9-2.2-4.9c-7.9-17.1-19.9-27.5-34.4-29.7l-4-.6 3.9 2.3c3.4 2.1 8.6 8.6 8.6 11 0 .4-1.6-.6-3.5-2.2-7.8-6.9-18.4-11.4-29.5-12.6l-6.5-.7 5 2.4c9.7 4.6 19.7 16.1 22.5 25.7.8 2.7.2 2.3-5.5-3.5-13.3-13.5-32.6-22.7-53-25.2-9.5-1.1-42.8-.8-46.3.5-.9.3-.3 1.6 2 4.1 1.9 2 4 4.5 4.8 5.6 1.3 1.8 1.2 1.8-1-.2-5.9-5.1-16.7-9.4-26.8-10.7l-4.3-.5 6.1 5.5zm-110.3 33c-.3.3-1.2.4-1.9.1-.8-.3-.5-.6.6-.6 1.1-.1 1.7.2 1.3.5z"/></svg>