<!--
  Licensed to the Apache Software Foundation (ASF) under one
  or more contributor license agreements.  See the NOTICE file
  distributed with this work for additional information
  regarding copyright ownership.  The ASF licenses this file
  to you under the Apache License, Version 2.0 (the
  "License"); you may not use this file except in compliance
  with the License.  You may obtain a copy of the License at

   http://www.apache.org/licenses/LICENSE-2.0

  Unless required by applicable law or agreed to in writing,
  software distributed under the License is distributed on an
  "AS IS" BASIS, WITHOUT WARRANTIES OR CONDITIONS OF ANY
  KIND, either express or implied.  See the License for the
  specific language governing permissions and limitations
  under the License.
-->
<svg version="1" xmlns="http://www.w3.org/2000/svg" width="682.667" height="682.667" viewBox="0 0 512.000000 512.000000"><path d="M72 125.9c-7 2.2-9.5 3.5-14.8 7.9-11.7 9.4-16.8 25.9-12.7 41.5 4.1 15.8 10.3 21.8 34.6 33.9 25 12.4 30.1 17.6 30.2 31.3 0 7.1-1.8 11.9-6.4 16.4-11 11-28.1 10.5-51-1.7-.4-.1-2.3 3.8-4.3 8.9-4.2 10.4-4.1 10.6 3.4 13.8 13 5.6 31.5 7.2 44.7 3.8 14.2-3.7 26-12.6 31.1-23.4 2.5-5.4 2.7-6.8 2.7-18.3-.1-10.8-.4-13.3-2.4-18.5-3.5-8.8-12.9-17.8-24.3-23.3-4.9-2.3-12.7-6.1-17.5-8.4-11.7-5.6-18.5-12.2-20.3-19.7-2.2-9.2-.2-16.5 6.2-23s-5.8-6.1 172.3-6.1H406v24.2l-.1 24.3-3.2 3.8-3.3 3.8-4.9-2.3c-4.4-2-6.6-2.3-18.5-2.3-12.5 0-13.9.2-19.1 2.6-16.3 7.7-26.1 25.3-24.6 44.3.9 11.1 4 17.9 11.8 25.8l6.7 6.7-4.6 3.6c-6.6 5-9.5 9.6-9.5 15.1 0 5.4 2.3 8.9 7.9 11.8 5.1 2.7 19.4 2.8 39 .3 12.8-1.7 14.3-1.8 17.7-.3 6.5 2.7 7 9.2 1 13.4-6.6 4.7-17.8 6.9-39.9 7.8l-15.2.7-.6 3.6c-.3 2-1.9 5.8-3.6 8.5l-3.1 4.9 21.8-.6c29.7-.9 42.3-3.8 53.2-12.3 7.3-5.6 10.1-10.6 10.1-17.6 0-10.1-4.9-17.7-14.2-21.9-4.5-2.1-6.7-2.4-15.3-2.3-5.5.1-16.7 1.3-25 2.7-13.6 2.4-15.2 2.5-17.3 1.1-2.1-1.4-2.2-1.7-.9-3.7.7-1.2 3.5-3.6 6.1-5.4 4.6-3.1 5.1-3.2 14.4-3.1 15.3.1 27.3-4.2 36.2-13.1 11.2-11.2 14.2-35.7 6.2-51.3l-3-5.6 5.4-5.3 5.4-5.3V124l-172.7.1c-162.4 0-173.1.1-178.3 1.8zm315.8 84.7c5.7 2.8 10 8.1 12.2 14.8 2.7 8.4-.6 24.3-6.3 30.4-7.6 8.2-22 9.1-31.8 2-11.1-8.1-13.4-30.9-4.1-42 6.5-7.7 20.2-10.1 30-5.2zM433.5 125c.3.5 1.9 1 3.5 1h2.9l.4 8.2.3 8.3.2-8.3.2-8.2h2.9c1.7 0 3.3-.5 3.6-1 .4-.6-2.2-1-7-1s-7.4.4-7 1zM451 133c0 5.8.4 9 1.1 9 .7 0 .9-2.4.7-7-.2-3.9 0-7 .3-7s1.9 3.2 3.4 7c1.6 3.9 3.3 6.9 3.8 6.7.5-.1 2.3-3.6 4.1-7.7l3.1-7.5.3 7.7c.4 10.9 2.2 9.8 2.2-1.2 0-11.6-1.7-12.1-6.4-1.8l-3.3 7.3-3.3-7.3c-4.5-10-6-9.6-6 1.8z"/><path d="M147.2 215.7c.3 52.1.4 57.1 2.1 60 2.2 4 6.4 6.3 11.6 6.3 5.5 0 8.5-1.3 11.1-5l2.2-3.1-2.6-2c-1.4-1.1-3-3.7-3.6-5.7-.6-2.3-1-23.1-1-55.5V159h-20.1l.3 56.7zM199.7 165c-3.6 2.9-5.2 8.1-3.7 12.5 2.6 7.8 12 10.2 18.2 4.6 2.9-2.6 3.3-3.5 3.3-8.1s-.4-5.5-3.3-8.1c-4-3.6-10.5-4-14.5-.9zM270.7 195.4c-2.1.8-5.5 2.6-7.7 4l-3.9 2.5-.3-3.2-.3-3.2-8.7-.3-8.8-.3V280h19v-61.1l2.8-2.5c4.1-3.9 8-5.6 14.1-6.1 7.5-.6 13.7 2.5 16.6 8.2 1.8 3.7 2 6.4 2.3 32.7l.3 28.8h19l-.3-32.3-.3-32.2-2.7-5.1c-3.5-6.6-10.4-12.6-16.9-14.7-6.2-2-18.9-2.2-24.2-.3zM188 204v8h9v69h19v-85h-28v8zM43 315.6V341h47.9c26.4 0 48.8.3 49.8.6 1.2.5 1.5.4.8-.3-.5-.5-3.7-1.6-7-2.2-11.2-2.4-27.4-8.2-32.5-11.6l-5.1-3.5-18.2-.2-18.2-.3-.5-13.3-.5-13.4-8.2-3.3-8.3-3.3v25.4zM195.8 296.6c1.2.8 2.7 2.5 3.3 3.7 1.2 2.1 1.2 2.1-1.2.4-5.1-3.7-8.8-4.7-17.6-4.7h-8.7l3.9 4c4.5 4.6 4.2 5.1-1 1.6-4.3-2.9-10-4.3-22.2-5.2-9.4-.7-20.3.1-20.3 1.6 0 .4 2.5 4.8 5.5 9.8l5.5 9 9.3 1.1c15.1 1.9 35.1 3 54.7 3.1 18.8 0 76.4-2.5 80.5-3.6 1.3-.3 2.5-1.3 2.8-2.2.3-1 .8-2.6 1.2-3.7.5-1.5 0-1.3-2 .9-1.4 1.5-2.7 2.7-2.9 2.5-.2-.2-1.3-2.2-2.4-4.5-3.3-6.5-11.9-13.4-16.7-13.4-.9 0-.5.9 1.2 2.6 2.7 2.8 2.4 4.7-.4 2.2-3-2.6-8.1-4.8-13.1-5.7-4.6-.9-4.6-.9-2.2.8 5.1 3.4 8.2 6.5 10 10.2 3 5.7 2.5 6-2.5 1.2-9.5-9-22.4-13.3-40.5-13.3-11.9 0-14.1.7-11 3.5 3.3 3 2.3 3.6-1.6 1-3.5-2.4-9.3-4.5-12.4-4.5-.9 0-.7.5.8 1.6z"/><path d="M320.5 316.6c-21.4 2.6-58.3 5.5-84 6.5-27.9 1.2-53.1.3-79.8-2.7-15.4-1.8-13.4-2.3-18.7 4.8l-2 2.6 8.7 2.1c24.7 5.7 46.4 8.1 71.8 8.2 21.5 0 42.7-2.7 52.3-6.7 1.7-.7 3.2-1.2 3.2-1.1 0 .1-.7 2.4-1.5 5.2l-1.4 5 2.7-3.5c4-5.2 10.1-11 11.6-11 .8 0 1.8 1.7 2.3 3.7l1 3.8.7-3.6.8-3.6 3.1 2.8c3.7 3.4 5.9 3.9 3 .6-2-2.1-4.3-6-4.3-7.1 0-.7 3.5-1.2 27-3.7 11.2-1.1 21.3-2.5 22.5-2.9 3-1.3-6-1-19 .6z"/></svg>